<mxfile host="app.diagrams.net" modified="2022-07-22T10:08:37.576Z" agent="5.0 (Windows NT 10.0; Win64; x64) AppleWebKit/537.36 (KHTML, like Gecko) Chrome/103.0.0.0 Safari/537.36" etag="6aj-tkcE9CTkUSPZbDtv" version="20.1.3" type="github">
  <diagram id="C5RBs43oDa-KdzZeNtuy" name="Page-1">
    <mxGraphModel dx="1422" dy="762" grid="1" gridSize="10" guides="1" tooltips="1" connect="1" arrows="1" fold="1" page="1" pageScale="1" pageWidth="827" pageHeight="1169" math="0" shadow="0">
      <root>
        <mxCell id="WIyWlLk6GJQsqaUBKTNV-0" />
        <mxCell id="WIyWlLk6GJQsqaUBKTNV-1" parent="WIyWlLk6GJQsqaUBKTNV-0" />
        <mxCell id="9-fcuSObMXvT9uvJyMpB-5" style="edgeStyle=orthogonalEdgeStyle;rounded=0;orthogonalLoop=1;jettySize=auto;html=1;exitX=0.5;exitY=1;exitDx=0;exitDy=0;exitPerimeter=0;fontSize=18;" edge="1" parent="WIyWlLk6GJQsqaUBKTNV-1" source="9-fcuSObMXvT9uvJyMpB-0" target="9-fcuSObMXvT9uvJyMpB-1">
          <mxGeometry relative="1" as="geometry" />
        </mxCell>
        <mxCell id="9-fcuSObMXvT9uvJyMpB-0" value="医生端APP&lt;br&gt;接诊开始" style="strokeWidth=2;html=1;shape=mxgraph.flowchart.terminator;whiteSpace=wrap;" vertex="1" parent="WIyWlLk6GJQsqaUBKTNV-1">
          <mxGeometry x="364" y="60" width="100" height="60" as="geometry" />
        </mxCell>
        <mxCell id="9-fcuSObMXvT9uvJyMpB-7" style="edgeStyle=orthogonalEdgeStyle;rounded=0;orthogonalLoop=1;jettySize=auto;html=1;exitX=0.5;exitY=1;exitDx=0;exitDy=0;fontSize=12;" edge="1" parent="WIyWlLk6GJQsqaUBKTNV-1" source="9-fcuSObMXvT9uvJyMpB-1" target="9-fcuSObMXvT9uvJyMpB-6">
          <mxGeometry relative="1" as="geometry" />
        </mxCell>
        <mxCell id="9-fcuSObMXvT9uvJyMpB-1" value="医生 APP 端接收到待接诊通知" style="rounded=1;whiteSpace=wrap;html=1;absoluteArcSize=1;arcSize=14;strokeWidth=2;" vertex="1" parent="WIyWlLk6GJQsqaUBKTNV-1">
          <mxGeometry x="364" y="160" width="100" height="100" as="geometry" />
        </mxCell>
        <mxCell id="9-fcuSObMXvT9uvJyMpB-3" value="&lt;font style=&quot;font-size: 18px;&quot;&gt;V 1.0.8&lt;/font&gt;" style="text;html=1;strokeColor=none;fillColor=none;align=center;verticalAlign=middle;whiteSpace=wrap;rounded=0;" vertex="1" parent="WIyWlLk6GJQsqaUBKTNV-1">
          <mxGeometry x="180" y="75" width="60" height="30" as="geometry" />
        </mxCell>
        <mxCell id="9-fcuSObMXvT9uvJyMpB-8" value="退诊" style="edgeStyle=orthogonalEdgeStyle;rounded=0;orthogonalLoop=1;jettySize=auto;html=1;fontSize=12;entryX=0.5;entryY=0;entryDx=0;entryDy=0;entryPerimeter=0;" edge="1" parent="WIyWlLk6GJQsqaUBKTNV-1" source="9-fcuSObMXvT9uvJyMpB-6" target="9-fcuSObMXvT9uvJyMpB-9">
          <mxGeometry x="-0.0596" relative="1" as="geometry">
            <mxPoint x="310" y="490" as="targetPoint" />
            <Array as="points">
              <mxPoint x="260" y="350" />
            </Array>
            <mxPoint as="offset" />
          </mxGeometry>
        </mxCell>
        <mxCell id="9-fcuSObMXvT9uvJyMpB-10" style="edgeStyle=orthogonalEdgeStyle;rounded=0;orthogonalLoop=1;jettySize=auto;html=1;fontSize=12;entryX=0.5;entryY=0;entryDx=0;entryDy=0;" edge="1" parent="WIyWlLk6GJQsqaUBKTNV-1" source="9-fcuSObMXvT9uvJyMpB-6" target="9-fcuSObMXvT9uvJyMpB-12">
          <mxGeometry relative="1" as="geometry">
            <mxPoint x="520" y="490" as="targetPoint" />
          </mxGeometry>
        </mxCell>
        <mxCell id="9-fcuSObMXvT9uvJyMpB-11" value="接诊" style="edgeLabel;html=1;align=center;verticalAlign=middle;resizable=0;points=[];fontSize=12;" vertex="1" connectable="0" parent="9-fcuSObMXvT9uvJyMpB-10">
          <mxGeometry x="0.1122" y="1" relative="1" as="geometry">
            <mxPoint y="17" as="offset" />
          </mxGeometry>
        </mxCell>
        <mxCell id="9-fcuSObMXvT9uvJyMpB-6" value="&lt;font style=&quot;font-size: 12px;&quot;&gt;是否接诊&lt;/font&gt;" style="strokeWidth=2;html=1;shape=mxgraph.flowchart.decision;whiteSpace=wrap;fontSize=18;" vertex="1" parent="WIyWlLk6GJQsqaUBKTNV-1">
          <mxGeometry x="364" y="300" width="100" height="100" as="geometry" />
        </mxCell>
        <mxCell id="9-fcuSObMXvT9uvJyMpB-9" value="医生端APP&lt;br&gt;接诊结束" style="strokeWidth=2;html=1;shape=mxgraph.flowchart.terminator;whiteSpace=wrap;" vertex="1" parent="WIyWlLk6GJQsqaUBKTNV-1">
          <mxGeometry x="210" y="1240" width="100" height="65" as="geometry" />
        </mxCell>
        <mxCell id="9-fcuSObMXvT9uvJyMpB-14" style="edgeStyle=orthogonalEdgeStyle;rounded=0;orthogonalLoop=1;jettySize=auto;html=1;exitX=0.5;exitY=1;exitDx=0;exitDy=0;entryX=0.5;entryY=0;entryDx=0;entryDy=0;entryPerimeter=0;fontSize=12;" edge="1" parent="WIyWlLk6GJQsqaUBKTNV-1" source="9-fcuSObMXvT9uvJyMpB-12" target="9-fcuSObMXvT9uvJyMpB-13">
          <mxGeometry relative="1" as="geometry" />
        </mxCell>
        <mxCell id="9-fcuSObMXvT9uvJyMpB-12" value="建立患者和医生&lt;br&gt;问诊聊天室,患者和医生自行交流" style="rounded=1;whiteSpace=wrap;html=1;absoluteArcSize=1;arcSize=14;strokeWidth=2;fontSize=12;" vertex="1" parent="WIyWlLk6GJQsqaUBKTNV-1">
          <mxGeometry x="470" y="500" width="100" height="80" as="geometry" />
        </mxCell>
        <mxCell id="9-fcuSObMXvT9uvJyMpB-15" style="edgeStyle=orthogonalEdgeStyle;rounded=0;orthogonalLoop=1;jettySize=auto;html=1;fontSize=12;" edge="1" parent="WIyWlLk6GJQsqaUBKTNV-1" source="9-fcuSObMXvT9uvJyMpB-13">
          <mxGeometry relative="1" as="geometry">
            <mxPoint x="430" y="790" as="targetPoint" />
          </mxGeometry>
        </mxCell>
        <mxCell id="9-fcuSObMXvT9uvJyMpB-16" value="未开处方" style="edgeLabel;html=1;align=center;verticalAlign=middle;resizable=0;points=[];fontSize=12;" vertex="1" connectable="0" parent="9-fcuSObMXvT9uvJyMpB-15">
          <mxGeometry x="0.1125" y="-1" relative="1" as="geometry">
            <mxPoint as="offset" />
          </mxGeometry>
        </mxCell>
        <mxCell id="9-fcuSObMXvT9uvJyMpB-24" style="edgeStyle=orthogonalEdgeStyle;rounded=0;orthogonalLoop=1;jettySize=auto;html=1;fontSize=12;" edge="1" parent="WIyWlLk6GJQsqaUBKTNV-1" source="9-fcuSObMXvT9uvJyMpB-13">
          <mxGeometry relative="1" as="geometry">
            <mxPoint x="620" y="790" as="targetPoint" />
          </mxGeometry>
        </mxCell>
        <mxCell id="9-fcuSObMXvT9uvJyMpB-25" value="开处方" style="edgeLabel;html=1;align=center;verticalAlign=middle;resizable=0;points=[];fontSize=12;" vertex="1" connectable="0" parent="9-fcuSObMXvT9uvJyMpB-24">
          <mxGeometry x="0.0941" y="-2" relative="1" as="geometry">
            <mxPoint y="7" as="offset" />
          </mxGeometry>
        </mxCell>
        <mxCell id="9-fcuSObMXvT9uvJyMpB-13" value="医生是否&lt;br&gt;开具处方" style="strokeWidth=2;html=1;shape=mxgraph.flowchart.decision;whiteSpace=wrap;fontSize=12;" vertex="1" parent="WIyWlLk6GJQsqaUBKTNV-1">
          <mxGeometry x="470" y="620" width="100" height="100" as="geometry" />
        </mxCell>
        <mxCell id="9-fcuSObMXvT9uvJyMpB-23" style="edgeStyle=orthogonalEdgeStyle;rounded=0;orthogonalLoop=1;jettySize=auto;html=1;entryX=1;entryY=0.5;entryDx=0;entryDy=0;entryPerimeter=0;fontSize=12;exitX=0.5;exitY=1;exitDx=0;exitDy=0;" edge="1" parent="WIyWlLk6GJQsqaUBKTNV-1" source="9-fcuSObMXvT9uvJyMpB-17" target="9-fcuSObMXvT9uvJyMpB-9">
          <mxGeometry relative="1" as="geometry" />
        </mxCell>
        <mxCell id="9-fcuSObMXvT9uvJyMpB-17" value="医生结束问诊" style="verticalLabelPosition=middle;verticalAlign=middle;html=1;shape=trapezoid;perimeter=trapezoidPerimeter;whiteSpace=wrap;size=0.23;arcSize=10;flipV=1;labelPosition=center;align=center;fontSize=12;" vertex="1" parent="WIyWlLk6GJQsqaUBKTNV-1">
          <mxGeometry x="370" y="790" width="120" height="60" as="geometry" />
        </mxCell>
        <mxCell id="9-fcuSObMXvT9uvJyMpB-35" style="edgeStyle=orthogonalEdgeStyle;rounded=0;orthogonalLoop=1;jettySize=auto;html=1;fontSize=12;" edge="1" parent="WIyWlLk6GJQsqaUBKTNV-1" source="9-fcuSObMXvT9uvJyMpB-26" target="9-fcuSObMXvT9uvJyMpB-34">
          <mxGeometry relative="1" as="geometry" />
        </mxCell>
        <mxCell id="9-fcuSObMXvT9uvJyMpB-26" value="生成处方记录&lt;br&gt;&amp;amp; 购药订单" style="rounded=1;whiteSpace=wrap;html=1;absoluteArcSize=1;arcSize=14;strokeWidth=2;fontSize=12;" vertex="1" parent="WIyWlLk6GJQsqaUBKTNV-1">
          <mxGeometry x="570" y="790" width="100" height="60" as="geometry" />
        </mxCell>
        <mxCell id="9-fcuSObMXvT9uvJyMpB-32" style="edgeStyle=orthogonalEdgeStyle;rounded=0;orthogonalLoop=1;jettySize=auto;html=1;exitX=0.5;exitY=1;exitDx=0;exitDy=0;entryX=0.5;entryY=0;entryDx=0;entryDy=0;entryPerimeter=0;fontSize=12;" edge="1" parent="WIyWlLk6GJQsqaUBKTNV-1" source="9-fcuSObMXvT9uvJyMpB-29" target="9-fcuSObMXvT9uvJyMpB-31">
          <mxGeometry relative="1" as="geometry" />
        </mxCell>
        <mxCell id="9-fcuSObMXvT9uvJyMpB-29" value="处方审核" style="rounded=1;whiteSpace=wrap;html=1;absoluteArcSize=1;arcSize=14;strokeWidth=2;fontSize=12;" vertex="1" parent="WIyWlLk6GJQsqaUBKTNV-1">
          <mxGeometry x="690" y="1040" width="100" height="60" as="geometry" />
        </mxCell>
        <mxCell id="9-fcuSObMXvT9uvJyMpB-41" style="edgeStyle=orthogonalEdgeStyle;rounded=0;orthogonalLoop=1;jettySize=auto;html=1;entryX=0.5;entryY=1;entryDx=0;entryDy=0;entryPerimeter=0;fontSize=12;" edge="1" parent="WIyWlLk6GJQsqaUBKTNV-1" source="9-fcuSObMXvT9uvJyMpB-31" target="9-fcuSObMXvT9uvJyMpB-9">
          <mxGeometry relative="1" as="geometry">
            <Array as="points">
              <mxPoint x="630" y="1190" />
              <mxPoint x="630" y="1325" />
              <mxPoint x="260" y="1325" />
            </Array>
          </mxGeometry>
        </mxCell>
        <mxCell id="9-fcuSObMXvT9uvJyMpB-42" value="审核未通过" style="edgeLabel;html=1;align=center;verticalAlign=middle;resizable=0;points=[];fontSize=12;" vertex="1" connectable="0" parent="9-fcuSObMXvT9uvJyMpB-41">
          <mxGeometry x="-0.5098" y="-1" relative="1" as="geometry">
            <mxPoint as="offset" />
          </mxGeometry>
        </mxCell>
        <mxCell id="9-fcuSObMXvT9uvJyMpB-43" style="edgeStyle=orthogonalEdgeStyle;rounded=0;orthogonalLoop=1;jettySize=auto;html=1;fontSize=12;" edge="1" parent="WIyWlLk6GJQsqaUBKTNV-1" source="9-fcuSObMXvT9uvJyMpB-31">
          <mxGeometry relative="1" as="geometry">
            <mxPoint x="840" y="1380" as="targetPoint" />
            <Array as="points">
              <mxPoint x="840" y="1190" />
            </Array>
          </mxGeometry>
        </mxCell>
        <mxCell id="9-fcuSObMXvT9uvJyMpB-44" value="审核通过" style="edgeLabel;html=1;align=center;verticalAlign=middle;resizable=0;points=[];fontSize=12;" vertex="1" connectable="0" parent="9-fcuSObMXvT9uvJyMpB-43">
          <mxGeometry x="0.0957" y="-2" relative="1" as="geometry">
            <mxPoint y="2" as="offset" />
          </mxGeometry>
        </mxCell>
        <mxCell id="9-fcuSObMXvT9uvJyMpB-31" value="审核是否通过" style="strokeWidth=2;html=1;shape=mxgraph.flowchart.decision;whiteSpace=wrap;fontSize=12;" vertex="1" parent="WIyWlLk6GJQsqaUBKTNV-1">
          <mxGeometry x="690" y="1140" width="100" height="100" as="geometry" />
        </mxCell>
        <mxCell id="9-fcuSObMXvT9uvJyMpB-36" style="edgeStyle=orthogonalEdgeStyle;rounded=0;orthogonalLoop=1;jettySize=auto;html=1;entryX=0.5;entryY=1;entryDx=0;entryDy=0;entryPerimeter=0;fontSize=12;" edge="1" parent="WIyWlLk6GJQsqaUBKTNV-1" source="9-fcuSObMXvT9uvJyMpB-34" target="9-fcuSObMXvT9uvJyMpB-9">
          <mxGeometry relative="1" as="geometry">
            <Array as="points">
              <mxPoint x="500" y="950" />
              <mxPoint x="500" y="1325" />
              <mxPoint x="260" y="1325" />
            </Array>
          </mxGeometry>
        </mxCell>
        <mxCell id="9-fcuSObMXvT9uvJyMpB-39" value="未支付" style="edgeLabel;html=1;align=center;verticalAlign=middle;resizable=0;points=[];fontSize=12;" vertex="1" connectable="0" parent="9-fcuSObMXvT9uvJyMpB-36">
          <mxGeometry x="-0.1579" y="2" relative="1" as="geometry">
            <mxPoint y="-177" as="offset" />
          </mxGeometry>
        </mxCell>
        <mxCell id="9-fcuSObMXvT9uvJyMpB-38" style="edgeStyle=orthogonalEdgeStyle;rounded=0;orthogonalLoop=1;jettySize=auto;html=1;entryX=0.5;entryY=0;entryDx=0;entryDy=0;fontSize=12;exitX=1;exitY=0.5;exitDx=0;exitDy=0;exitPerimeter=0;" edge="1" parent="WIyWlLk6GJQsqaUBKTNV-1" source="9-fcuSObMXvT9uvJyMpB-34" target="9-fcuSObMXvT9uvJyMpB-29">
          <mxGeometry relative="1" as="geometry">
            <mxPoint x="680" y="950" as="sourcePoint" />
          </mxGeometry>
        </mxCell>
        <mxCell id="9-fcuSObMXvT9uvJyMpB-40" value="已支付" style="edgeLabel;html=1;align=center;verticalAlign=middle;resizable=0;points=[];fontSize=12;" vertex="1" connectable="0" parent="9-fcuSObMXvT9uvJyMpB-38">
          <mxGeometry x="0.2667" y="1" relative="1" as="geometry">
            <mxPoint x="-1" y="19" as="offset" />
          </mxGeometry>
        </mxCell>
        <mxCell id="9-fcuSObMXvT9uvJyMpB-34" value="用户是否支付" style="strokeWidth=2;html=1;shape=mxgraph.flowchart.decision;whiteSpace=wrap;fontSize=12;" vertex="1" parent="WIyWlLk6GJQsqaUBKTNV-1">
          <mxGeometry x="570" y="900" width="100" height="100" as="geometry" />
        </mxCell>
        <mxCell id="9-fcuSObMXvT9uvJyMpB-45" style="edgeStyle=orthogonalEdgeStyle;rounded=0;orthogonalLoop=1;jettySize=auto;html=1;fontSize=12;entryX=0.5;entryY=0;entryDx=0;entryDy=0;" edge="1" target="9-fcuSObMXvT9uvJyMpB-47" parent="WIyWlLk6GJQsqaUBKTNV-1">
          <mxGeometry relative="1" as="geometry">
            <mxPoint x="520" y="490" as="targetPoint" />
            <mxPoint x="464" y="350" as="sourcePoint" />
          </mxGeometry>
        </mxCell>
        <mxCell id="9-fcuSObMXvT9uvJyMpB-46" value="接诊" style="edgeLabel;html=1;align=center;verticalAlign=middle;resizable=0;points=[];fontSize=12;" vertex="1" connectable="0" parent="9-fcuSObMXvT9uvJyMpB-45">
          <mxGeometry x="0.1122" y="1" relative="1" as="geometry">
            <mxPoint y="17" as="offset" />
          </mxGeometry>
        </mxCell>
        <mxCell id="9-fcuSObMXvT9uvJyMpB-47" value="建立患者和医生&lt;br&gt;问诊聊天室,患者和医生自行交流" style="rounded=1;whiteSpace=wrap;html=1;absoluteArcSize=1;arcSize=14;strokeWidth=2;fontSize=12;" vertex="1" parent="WIyWlLk6GJQsqaUBKTNV-1">
          <mxGeometry x="470" y="500" width="100" height="80" as="geometry" />
        </mxCell>
        <mxCell id="9-fcuSObMXvT9uvJyMpB-48" value="医生是否&lt;br&gt;开具处方" style="strokeWidth=2;html=1;shape=mxgraph.flowchart.decision;whiteSpace=wrap;fontSize=12;" vertex="1" parent="WIyWlLk6GJQsqaUBKTNV-1">
          <mxGeometry x="470" y="620" width="100" height="100" as="geometry" />
        </mxCell>
        <mxCell id="9-fcuSObMXvT9uvJyMpB-49" value="医生结束问诊" style="verticalLabelPosition=middle;verticalAlign=middle;html=1;shape=trapezoid;perimeter=trapezoidPerimeter;whiteSpace=wrap;size=0.23;arcSize=10;flipV=1;labelPosition=center;align=center;fontSize=12;" vertex="1" parent="WIyWlLk6GJQsqaUBKTNV-1">
          <mxGeometry x="370" y="790" width="120" height="60" as="geometry" />
        </mxCell>
        <mxCell id="9-fcuSObMXvT9uvJyMpB-50" style="edgeStyle=orthogonalEdgeStyle;rounded=0;orthogonalLoop=1;jettySize=auto;html=1;fontSize=12;" edge="1" source="9-fcuSObMXvT9uvJyMpB-48" parent="WIyWlLk6GJQsqaUBKTNV-1">
          <mxGeometry relative="1" as="geometry">
            <mxPoint x="430" y="790" as="targetPoint" />
          </mxGeometry>
        </mxCell>
        <mxCell id="9-fcuSObMXvT9uvJyMpB-51" value="未开处方" style="edgeLabel;html=1;align=center;verticalAlign=middle;resizable=0;points=[];fontSize=12;" vertex="1" connectable="0" parent="9-fcuSObMXvT9uvJyMpB-50">
          <mxGeometry x="0.1125" y="-1" relative="1" as="geometry">
            <mxPoint as="offset" />
          </mxGeometry>
        </mxCell>
        <mxCell id="9-fcuSObMXvT9uvJyMpB-52" style="edgeStyle=orthogonalEdgeStyle;rounded=0;orthogonalLoop=1;jettySize=auto;html=1;fontSize=12;" edge="1" source="9-fcuSObMXvT9uvJyMpB-48" parent="WIyWlLk6GJQsqaUBKTNV-1">
          <mxGeometry relative="1" as="geometry">
            <mxPoint x="620" y="790" as="targetPoint" />
          </mxGeometry>
        </mxCell>
        <mxCell id="9-fcuSObMXvT9uvJyMpB-53" value="开处方" style="edgeLabel;html=1;align=center;verticalAlign=middle;resizable=0;points=[];fontSize=12;" vertex="1" connectable="0" parent="9-fcuSObMXvT9uvJyMpB-52">
          <mxGeometry x="0.0941" y="-2" relative="1" as="geometry">
            <mxPoint y="7" as="offset" />
          </mxGeometry>
        </mxCell>
        <mxCell id="9-fcuSObMXvT9uvJyMpB-54" value="生成处方记录&lt;br&gt;&amp;amp; 购药订单" style="rounded=1;whiteSpace=wrap;html=1;absoluteArcSize=1;arcSize=14;strokeWidth=2;fontSize=12;" vertex="1" parent="WIyWlLk6GJQsqaUBKTNV-1">
          <mxGeometry x="570" y="790" width="100" height="60" as="geometry" />
        </mxCell>
        <mxCell id="9-fcuSObMXvT9uvJyMpB-55" value="用户是否支付" style="strokeWidth=2;html=1;shape=mxgraph.flowchart.decision;whiteSpace=wrap;fontSize=12;" vertex="1" parent="WIyWlLk6GJQsqaUBKTNV-1">
          <mxGeometry x="570" y="900" width="100" height="100" as="geometry" />
        </mxCell>
        <mxCell id="9-fcuSObMXvT9uvJyMpB-57" style="edgeStyle=orthogonalEdgeStyle;rounded=0;orthogonalLoop=1;jettySize=auto;html=1;fontSize=12;entryX=0.5;entryY=0;entryDx=0;entryDy=0;" edge="1" target="9-fcuSObMXvT9uvJyMpB-59" parent="WIyWlLk6GJQsqaUBKTNV-1">
          <mxGeometry relative="1" as="geometry">
            <mxPoint x="520" y="490" as="targetPoint" />
            <mxPoint x="464" y="350" as="sourcePoint" />
          </mxGeometry>
        </mxCell>
        <mxCell id="9-fcuSObMXvT9uvJyMpB-58" value="接诊" style="edgeLabel;html=1;align=center;verticalAlign=middle;resizable=0;points=[];fontSize=12;" vertex="1" connectable="0" parent="9-fcuSObMXvT9uvJyMpB-57">
          <mxGeometry x="0.1122" y="1" relative="1" as="geometry">
            <mxPoint y="17" as="offset" />
          </mxGeometry>
        </mxCell>
        <mxCell id="9-fcuSObMXvT9uvJyMpB-59" value="建立患者和医生&lt;br&gt;问诊聊天室,患者和医生自行交流" style="rounded=1;whiteSpace=wrap;html=1;absoluteArcSize=1;arcSize=14;strokeWidth=2;fontSize=12;" vertex="1" parent="WIyWlLk6GJQsqaUBKTNV-1">
          <mxGeometry x="470" y="500" width="100" height="80" as="geometry" />
        </mxCell>
        <mxCell id="9-fcuSObMXvT9uvJyMpB-60" value="医生是否&lt;br&gt;开具处方" style="strokeWidth=2;html=1;shape=mxgraph.flowchart.decision;whiteSpace=wrap;fontSize=12;" vertex="1" parent="WIyWlLk6GJQsqaUBKTNV-1">
          <mxGeometry x="470" y="620" width="100" height="100" as="geometry" />
        </mxCell>
        <mxCell id="9-fcuSObMXvT9uvJyMpB-61" value="医生结束问诊" style="verticalLabelPosition=middle;verticalAlign=middle;html=1;shape=trapezoid;perimeter=trapezoidPerimeter;whiteSpace=wrap;size=0.23;arcSize=10;flipV=1;labelPosition=center;align=center;fontSize=12;" vertex="1" parent="WIyWlLk6GJQsqaUBKTNV-1">
          <mxGeometry x="370" y="790" width="120" height="60" as="geometry" />
        </mxCell>
        <mxCell id="9-fcuSObMXvT9uvJyMpB-62" style="edgeStyle=orthogonalEdgeStyle;rounded=0;orthogonalLoop=1;jettySize=auto;html=1;fontSize=12;" edge="1" source="9-fcuSObMXvT9uvJyMpB-60" parent="WIyWlLk6GJQsqaUBKTNV-1">
          <mxGeometry relative="1" as="geometry">
            <mxPoint x="430" y="790" as="targetPoint" />
          </mxGeometry>
        </mxCell>
        <mxCell id="9-fcuSObMXvT9uvJyMpB-63" value="未开处方" style="edgeLabel;html=1;align=center;verticalAlign=middle;resizable=0;points=[];fontSize=12;" vertex="1" connectable="0" parent="9-fcuSObMXvT9uvJyMpB-62">
          <mxGeometry x="0.1125" y="-1" relative="1" as="geometry">
            <mxPoint as="offset" />
          </mxGeometry>
        </mxCell>
        <mxCell id="9-fcuSObMXvT9uvJyMpB-64" style="edgeStyle=orthogonalEdgeStyle;rounded=0;orthogonalLoop=1;jettySize=auto;html=1;fontSize=12;" edge="1" source="9-fcuSObMXvT9uvJyMpB-60" parent="WIyWlLk6GJQsqaUBKTNV-1">
          <mxGeometry relative="1" as="geometry">
            <mxPoint x="620" y="790" as="targetPoint" />
          </mxGeometry>
        </mxCell>
        <mxCell id="9-fcuSObMXvT9uvJyMpB-65" value="开处方" style="edgeLabel;html=1;align=center;verticalAlign=middle;resizable=0;points=[];fontSize=12;" vertex="1" connectable="0" parent="9-fcuSObMXvT9uvJyMpB-64">
          <mxGeometry x="0.0941" y="-2" relative="1" as="geometry">
            <mxPoint y="7" as="offset" />
          </mxGeometry>
        </mxCell>
        <mxCell id="9-fcuSObMXvT9uvJyMpB-66" value="生成处方记录&lt;br&gt;&amp;amp; 购药订单" style="rounded=1;whiteSpace=wrap;html=1;absoluteArcSize=1;arcSize=14;strokeWidth=2;fontSize=12;" vertex="1" parent="WIyWlLk6GJQsqaUBKTNV-1">
          <mxGeometry x="570" y="790" width="100" height="60" as="geometry" />
        </mxCell>
        <mxCell id="9-fcuSObMXvT9uvJyMpB-67" value="用户是否支付" style="strokeWidth=2;html=1;shape=mxgraph.flowchart.decision;whiteSpace=wrap;fontSize=12;" vertex="1" parent="WIyWlLk6GJQsqaUBKTNV-1">
          <mxGeometry x="570" y="900" width="100" height="100" as="geometry" />
        </mxCell>
        <mxCell id="9-fcuSObMXvT9uvJyMpB-71" style="edgeStyle=orthogonalEdgeStyle;rounded=0;orthogonalLoop=1;jettySize=auto;html=1;entryX=0.5;entryY=1;entryDx=0;entryDy=0;entryPerimeter=0;fontSize=12;" edge="1" parent="WIyWlLk6GJQsqaUBKTNV-1" source="9-fcuSObMXvT9uvJyMpB-70" target="9-fcuSObMXvT9uvJyMpB-9">
          <mxGeometry relative="1" as="geometry" />
        </mxCell>
        <mxCell id="9-fcuSObMXvT9uvJyMpB-70" value="医生&lt;br&gt;结束问诊" style="verticalLabelPosition=middle;verticalAlign=middle;html=1;shape=trapezoid;perimeter=trapezoidPerimeter;whiteSpace=wrap;size=0.23;arcSize=10;flipV=1;labelPosition=center;align=center;fontSize=12;" vertex="1" parent="WIyWlLk6GJQsqaUBKTNV-1">
          <mxGeometry x="790" y="1380" width="100" height="60" as="geometry" />
        </mxCell>
      </root>
    </mxGraphModel>
  </diagram>
</mxfile>
